<?xml version="1.0" encoding="utf-8"?>
<!-- Generator: Adobe Illustrator 21.0.2, SVG Export Plug-In . SVG Version: 6.00 Build 0)  -->
<svg version="1.1" id="Layer_1" xmlns="http://www.w3.org/2000/svg" xmlns:xlink="http://www.w3.org/1999/xlink" x="0px" y="0px"
	 viewBox="0 0 300 300" style="enable-background:new 0 0 300 300;" xml:space="preserve">
<style type="text/css">
	.st0{fill:#808080;}
</style>
<path class="st0" d="M163.7,150.5L275.8,38.3c4.9-4.9,4.9-12.8,0-17.7c-4.9-4.9-12.8-4.9-17.7,0L146,132.8L33.8,20.7
	c-4.9-4.9-12.8-4.9-17.7,0c-4.9,4.9-4.9,12.8,0,17.7l112.2,112.2L16.2,262.7c-4.9,4.9-4.9,12.8,0,17.7c2.4,2.4,5.6,3.7,8.8,3.7
	s6.4-1.2,8.8-3.7L146,168.2l112.2,112.2c2.4,2.4,5.6,3.7,8.8,3.7s6.4-1.2,8.8-3.7c4.9-4.9,4.9-12.8,0-17.7L163.7,150.5z"/>
</svg>
