<?xml version="1.0" encoding="utf-8"?>
<!-- Generator: Adobe Illustrator 21.0.2, SVG Export Plug-In . SVG Version: 6.00 Build 0)  -->
<svg version="1.1" id="Layer_1" xmlns="http://www.w3.org/2000/svg" xmlns:xlink="http://www.w3.org/1999/xlink" x="0px" y="0px"
	 viewBox="0 0 300 300" style="enable-background:new 0 0 300 300;" xml:space="preserve">
<style type="text/css">
	.st0{fill:#808080;}
</style>
<g>
	<path class="st0" d="M293.4,277.3l-70.2-70.2c17.4-21.2,27.9-48.4,27.9-78C251.1,61.1,196,6,128.1,6C60.1,6,5,61.1,5,129.1
		s55.1,123.1,123.1,123.1c29.6,0,56.7-10.4,77.9-27.8l70.2,70.1c4.8,4.8,12.5,4.8,17.2,0C298.2,289.7,298.2,282,293.4,277.3z
		 M128.1,227.6c-54.4,0-98.6-44.2-98.6-98.6s44.2-98.6,98.6-98.6c54.3,0,98.6,44.3,98.6,98.6S182.4,227.6,128.1,227.6z"/>
</g>
</svg>
